<svg viewBox="0 0 800 250" xmlns="http://www.w3.org/2000/svg">
  <!-- Gradients and patterns -->
  <defs>
    <!-- Background gradient -->
    <linearGradient id="bg-gradient" x1="0%" y1="0%" x2="100%" y2="100%">
      <stop offset="0%" style="stop-color:#1a1f36;stop-opacity:1" />
      <stop offset="100%" style="stop-color:#2d3154;stop-opacity:1" />
    </linearGradient>
    
    <!-- Code pattern -->
    <pattern id="code-pattern" x="0" y="0" width="100" height="100" patternUnits="userSpaceOnUse">
      <text x="10" y="20" fill="#ffffff" opacity="0.1" font-family="monospace" font-size="12">
        <tspan x="10" dy="0">&lt;div&gt;</tspan>
        <tspan x="10" dy="15">  function()</tspan>
        <tspan x="10" dy="15">  return {</tspan>
        <tspan x="10" dy="15">    data: []</tspan>
        <tspan x="10" dy="15">  }</tspan>
      </text>
    </pattern>
  </defs>

  <!-- Main background -->
  <rect width="800" height="250" fill="url(#bg-gradient)" />
  <rect width="800" height="250" fill="url(#code-pattern)" />

  <!-- Large monitor in center -->
  <g transform="translate(350, 80)">
    <!-- Monitor frame -->
    <rect x="-120" y="-60" width="240" height="160" rx="10" fill="#2a2e4b" />
    <rect x="-110" y="-50" width="220" height="140" rx="5" fill="#151726" />
    
    <!-- Monitor stand -->
    <path d="M-20,100 L20,100 L30,120 L-30,120 Z" fill="#2a2e4b" />
    
    <!-- Animated code lines -->
    <g>
      <rect x="-90" y="-30" width="120" height="6" fill="#3498db" opacity="0.6">
        <animate attributeName="width" values="0;120" dur="2s" repeatCount="indefinite" />
      </rect>
      <rect x="-90" y="-10" width="180" height="6" fill="#2ecc71" opacity="0.6">
        <animate attributeName="width" values="0;180" dur="2s" begin="0.5s" repeatCount="indefinite" />
      </rect>
      <rect x="-90" y="10" width="150" height="6" fill="#e74c3c" opacity="0.6">
        <animate attributeName="width" values="0;150" dur="2s" begin="1s" repeatCount="indefinite" />
      </rect>
      <rect x="-90" y="30" width="140" height="6" fill="#f1c40f" opacity="0.6">
        <animate attributeName="width" values="0;140" dur="2s" begin="1.5s" repeatCount="indefinite" />
      </rect>
    </g>
  </g>

  <!-- Developer figures -->
  <!-- Developer 1 (left) -->
  <g transform="translate(150, 140)">
    <!-- Body -->
    <circle cx="0" cy="-30" r="20" fill="#3498db" />
    <rect x="-15" y="-10" width="30" height="40" fill="#3498db" rx="5" />
    <!-- Arms -->
    <g>
      <path d="M-15,-5 Q-30,0 -40,10" stroke="#3498db" stroke-width="8" fill="none">
        <animate attributeName="d" 
                 values="M-15,-5 Q-30,0 -40,10;M-15,-5 Q-30,-10 -40,0;M-15,-5 Q-30,0 -40,10" 
                 dur="2s" 
                 repeatCount="indefinite"/>
      </path>
    </g>
    <!-- Laptop -->
    <rect x="-30" y="15" width="40" height="25" fill="#2a2e4b" rx="3" />
  </g>

  <!-- Developer 2 (right) -->
  <g transform="translate(650, 140)">
    <!-- Body -->
    <circle cx="0" cy="-30" r="20" fill="#e74c3c" />
    <rect x="-15" y="-10" width="30" height="40" fill="#e74c3c" rx="5" />
    <!-- Arms -->
    <g>
      <path d="M15,-5 Q30,0 40,10" stroke="#e74c3c" stroke-width="8" fill="none">
        <animate attributeName="d" 
                 values="M15,-5 Q30,0 40,10;M15,-5 Q30,-10 40,0;M15,-5 Q30,0 40,10" 
                 dur="2s" 
                 repeatCount="indefinite"/>
      </path>
    </g>
    <!-- Tablet -->
    <rect x="-10" y="15" width="30" height="40" fill="#2a2e4b" rx="3" />
  </g>

  <!-- Title and subtitle -->
  <g transform="translate(400, 200)">
    <text x="0" y="0" font-family="Arial, sans-serif" font-size="32" font-weight="bold" fill="white" text-anchor="middle">
      WP Maintenance Pro
    </text>
    <text x="0" y="30" font-family="Arial, sans-serif" font-size="16" fill="white" text-anchor="middle" opacity="0.8">
      Site is under maintenance
    </text>
  </g>

  <!-- Floating gear icons -->
  <g transform="translate(50, 50)">
    <path d="M20,0 A20,20 0 1,1 0,20 L8,12 L12,16 L20,8 L16,4 Z" fill="white" opacity="0.2">
      <animateTransform
        attributeName="transform"
        type="rotate"
        from="0 10 10"
        to="360 10 10"
        dur="8s"
        repeatCount="indefinite"/>
    </path>
  </g>
  <g transform="translate(720, 40)">
    <path d="M20,0 A20,20 0 1,1 0,20 L8,12 L12,16 L20,8 L16,4 Z" fill="white" opacity="0.2">
      <animateTransform
        attributeName="transform"
        type="rotate"
        from="360 10 10"
        to="0 10 10"
        dur="8s"
        repeatCount="indefinite"/>
    </path>
  </g>
</svg>
